<svg id="Layer_1" data-name="Layer 1" xmlns="http://www.w3.org/2000/svg" viewBox="0 0 998.85 877.48">
<defs>
  <style>
    @keyframes red_light{
          0%{opacity: 0;}
          20%{opacity: 0;}
          100%{opacity: 1;}
        }
        @keyframes blue_light{
          0%{opacity: 0;}
          20%{opacity: 0;}
          50%{opacity: 0.3;}
          100%{opacity: 1;}
        }
        @keyframes green_light{
          0%{opacity: 0;}
          20%{opacity: 0;}
          50%{opacity: 0.3;}
          100%{opacity: 1;}
        }
        @keyframes all_effects{
          0%{opacity:0;}
          100%{opacity:1;}
        }
        @keyframes dash_ani{
          from{ stroke-dashoffset: 6391; }
          to {stroke-dashoffset: 0; }
        }
        @keyframes circle_ani{
          0%{ opacity: 0;}
          100% {opacity: 1;}
        }
        
        g{
          animation: all_effects 5s ease-in-out;
        }
        
        .cls-1{fill:#00f}
        .cls-2{fill:none}
        .cls-3{fill:green}

        .red_beem{
          animation: red_light 10s ease-in-out;
        }
        .blue_beem{
          animation: blue_light 13s ease-in-out;
        }
        .green_beem{
          animation: green_light 16s ease-in-out;
        }
        .black_mask{
          fill: #000;
          opacity: 1;
        }
      
        .mask2 {
          fill: #000;
          animation: circle_ani 3s ease-in-out;
        }
        
        .mask1 {
          stroke: black;
          stroke-width: 5;
          stroke-dasharray: 6391;
          stroke-dashoffset: 0;
          fill: transparent;
          animation: dash_ani 5s;
        }
  </style>
</defs>
    <g>
      <path class="cls-1 black_mask" d="m882.5 147.65-1.5 4.94c.36 0 .7 0 1.06-.06.19-1.64.34-3.27.44-4.88ZM959.35 154.15l-.36-1.28c-.19.4-.38.78-.56 1.19.31.03.57.07.92.09Z" transform="translate(-413.94 -66.6)"/>
      <path class="cls-1 blue_beem" d="m882.5 147.65-1.5 4.94c.36 0 .7 0 1.06-.06.19-1.64.34-3.27.44-4.88ZM959.35 154.15l-.36-1.28c-.19.4-.38.78-.56 1.19.31.03.57.07.92.09Z" transform="translate(-413.94 -66.6)"/>
    </g>

    <path class="cls-2" d="m1009.23 531.54-27-94.67L944.6 527v286.87h91.58v5.87c168-41.66 290-166.63 290-314.33 0-105-61.77-198.51-157.83-258.77l-95.09 284.9ZM747.51 526.39 663.1 243.9c-98.56 60.15-162.19 154.88-162.19 261.51 0 134.15 100.67 249.46 245 300.72V526.39ZM873.07 177.89a506.93 506.93 0 0 0-56.34 7.61l29.11 79.74ZM784.91 471.83h1.41c6.15-31.81 16.78-68.6 29-108.43l-63.16-161q-17.8 6-34.71 13.34l32.3 116.93c14.07 50.2 26.72 100.33 35.16 139.16Z" transform="translate(-413.94 -66.6)"/>

    <path class="cls-2" d="M1043 471.24h1.4c9.85-44.19 23.21-89 38-139.13l34.8-112.89q-18.33-8.33-37.76-15.16l-63.29 151.63c10.95 40.19 20.9 79.78 26.85 115.55ZM1016.5 186.63c-16.32-3.34-33.08-5.81-50.11-7.55l22.81 80.78Z" transform="translate(-413.94 -66.6)"/>

    <path class="cls-2" d="m429.87 369.41-30.57 94.9v282.96h66.68V461.45l-36.11-92.04z"/>

    <path class="cls-2" d="M916.68 463.27c11.49-37.23 25-74.53 40.06-115.78L949.46 322c-14.77-51.35-24.61-90.76-30.94-131.36h-1.41c-8.43 40-19 79.41-36.56 131.36L874 342.42c15.35 42.62 28 79.5 41.25 120.85Z" transform="translate(-413.94 -66.6)"/>

    <g>
      <path class="cls-3 black_mask" d="M916.68 463.27h-1.47C902 421.92 889.31 385 874 342.42L843.81 436l36.12 92v285.87h64.67V527l37.63-90.16-25.49-89.38c-15.06 41.28-28.57 78.54-40.06 115.81ZM816.73 185.5a484.69 484.69 0 0 0-64.57 16.94l63.16 161c3.14-10.26 6.37-20.66 9.68-31.29l20.84-66.87ZM1016.5 186.63l-27.3 73.23 20.74 73.45q3.13 11.2 6.18 22.38l63.29-151.63a484.32 484.32 0 0 0-62.91-17.43Z" transform="translate(-413.94 -66.6)"/>
      <path class="cls-3 green_beem" d="M916.68 463.27h-1.47C902 421.92 889.31 385 874 342.42L843.81 436l36.12 92v285.87h64.67V527l37.63-90.16-25.49-89.38c-15.06 41.28-28.57 78.54-40.06 115.81ZM816.73 185.5a484.69 484.69 0 0 0-64.57 16.94l63.16 161c3.14-10.26 6.37-20.66 9.68-31.29l20.84-66.87ZM1016.5 186.63l-27.3 73.23 20.74 73.45q3.13 11.2 6.18 22.38l63.29-151.63a484.32 484.32 0 0 0-62.91-17.43Z" transform="translate(-413.94 -66.6)"/>
    </g>

    <g>
      <path class="cls-1 black_mask" d="m1117.17 219.22-34.8 112.89c-14.77 50.16-28.13 94.94-38 139.13H1043c-5.94-35.77-15.89-75.36-26.87-115.55q-3.06-11.18-6.18-22.38l-20.75-73.45-22.81-80.78a519.45 519.45 0 0 0-52.86-2.78c-13.66 0-27.15.56-40.46 1.59l-27.23 87.35L825 332.11c-3.31 10.63-6.54 21-9.68 31.29-12.22 39.83-22.85 76.62-29 108.43h-1.41c-8.44-38.81-21.09-89-35.16-139.12l-32.3-116.93a436.41 436.41 0 0 0-54.35 28.12l84.41 282.49h65.73v4.52L843.81 436 874 342.42l6.55-20.42c17.58-52 28.13-91.4 36.56-131.4h1.41c6.33 40.6 16.17 80 30.94 131.36l7.28 25.53 25.49 89.38 27 94.67h64l95.09-284.9a431.42 431.42 0 0 0-51.15-27.42Z" transform="translate(-413.94 -66.6)"/>
      <path class="cls-1  blue_beem" d="m1117.17 219.22-34.8 112.89c-14.77 50.16-28.13 94.94-38 139.13H1043c-5.94-35.77-15.89-75.36-26.87-115.55q-3.06-11.18-6.18-22.38l-20.75-73.45-22.81-80.78a519.45 519.45 0 0 0-52.86-2.78c-13.66 0-27.15.56-40.46 1.59l-27.23 87.35L825 332.11c-3.31 10.63-6.54 21-9.68 31.29-12.22 39.83-22.85 76.62-29 108.43h-1.41c-8.44-38.81-21.09-89-35.16-139.12l-32.3-116.93a436.41 436.41 0 0 0-54.35 28.12l84.41 282.49h65.73v4.52L843.81 436 874 342.42l6.55-20.42c17.58-52 28.13-91.4 36.56-131.4h1.41c6.33 40.6 16.17 80 30.94 131.36l7.28 25.53 25.49 89.38 27 94.67h64l95.09-284.9a431.42 431.42 0 0 0-51.15-27.42Z" transform="translate(-413.94 -66.6)"/>
    </g>

    <g>
      <path class="black_mask" d="M944.6 813.87H813.24V526.39H745.9v279.74a501 501 0 0 0 167.63 28.4 509.7 509.7 0 0 0 122.65-14.79v-5.87Z" transform="translate(-413.94 -66.6)"/>
      <path class="red_beem" d="M944.6 813.87H813.24V526.39H745.9v279.74a501 501 0 0 0 167.63 28.4 509.7 509.7 0 0 0 122.65-14.79v-5.87Z" transform="translate(-413.94 -66.6)" style="fill:red"/>
    </g>

    <path class="mask1" d="M1178.17 217.1a451 451 0 0 0-52.59-25.1q-17.25-6.94-35.75-12.84a555 555 0 0 0-64.52-16.16 637.59 637.59 0 0 0-66-8.85c-.31 0-.61-.06-.92-.09.18-.41.37-.79.56-1.19 10-22.12 24.36-34.06 24.36-41.56 0-6.1-3.32-9.16-16.61-15.27L900.3 76.2c-10-3.06-19.93-3.06-28.24-3.06-23.25 0-33.22 9.17-33.22 15.27 0 1.53 1.66 3 3.32 4.58 31 12.82 41.73 32.28 40.34 54.66-.1 1.61-.25 3.24-.48 4.88-.36 0-.7.05-1.06.06a629 629 0 0 0-73.61 7.2 542.22 542.22 0 0 0-66.16 14.69c-11.1 3.23-21.77 6.85-32.2 10.68a448 448 0 0 0-56 24.93C529.24 276 466.76 387.85 466.76 493c0 158.51 95 298.7 279.14 350.09q11 3.07 22.38 5.7C810.72 858.61 857.45 864 908.6 864c307.3 0 448.49-184.74 448.49-367.95 0-103.27-59.71-211.96-178.92-278.95Zm-142 602.64a509.7 509.7 0 0 1-122.65 14.79 501 501 0 0 1-167.63-28.4c-144.32-51.26-245-166.57-245-300.72 0-106.63 63.63-201.36 162.19-261.51a436.41 436.41 0 0 1 54.35-28.12q16.89-7.31 34.71-13.34a484.69 484.69 0 0 1 64.57-16.94 506.93 506.93 0 0 1 56.34-7.61c13.31-1 26.8-1.59 40.46-1.59a519.45 519.45 0 0 1 52.86 2.78c17 1.74 33.79 4.21 50.11 7.55a484.32 484.32 0 0 1 62.91 17.43q19.44 6.83 37.76 15.16a431.42 431.42 0 0 1 51.14 27.42c96.06 60.26 157.83 153.73 157.83 258.77.02 147.7-121.95 272.67-289.94 314.33Z" transform="translate(-413.94 -66.6)"/>

    <path class="mask2" d="M1178.17 217.1a451 451 0 0 0-52.59-25.1q-17.25-6.94-35.75-12.84a555 555 0 0 0-64.52-16.16 637.59 637.59 0 0 0-66-8.85c-.31 0-.61-.06-.92-.09.18-.41.37-.79.56-1.19 10-22.12 24.36-34.06 24.36-41.56 0-6.1-3.32-9.16-16.61-15.27L900.3 76.2c-10-3.06-19.93-3.06-28.24-3.06-23.25 0-33.22 9.17-33.22 15.27 0 1.53 1.66 3 3.32 4.58 31 12.82 41.73 32.28 40.34 54.66-.1 1.61-.25 3.24-.48 4.88-.36 0-.7.05-1.06.06a629 629 0 0 0-73.61 7.2 542.22 542.22 0 0 0-66.16 14.69c-11.1 3.23-21.77 6.85-32.2 10.68a448 448 0 0 0-56 24.93C529.24 276 466.76 387.85 466.76 493c0 158.51 95 298.7 279.14 350.09q11 3.07 22.38 5.7C810.72 858.61 857.45 864 908.6 864c307.3 0 448.49-184.74 448.49-367.95 0-103.27-59.71-211.96-178.92-278.95Zm-142 602.64a509.7 509.7 0 0 1-122.65 14.79 501 501 0 0 1-167.63-28.4c-144.32-51.26-245-166.57-245-300.72 0-106.63 63.63-201.36 162.19-261.51a436.41 436.41 0 0 1 54.35-28.12q16.89-7.31 34.71-13.34a484.69 484.69 0 0 1 64.57-16.94 506.93 506.93 0 0 1 56.34-7.61c13.31-1 26.8-1.59 40.46-1.59a519.45 519.45 0 0 1 52.86 2.78c17 1.74 33.79 4.21 50.11 7.55a484.32 484.32 0 0 1 62.91 17.43q19.44 6.83 37.76 15.16a431.42 431.42 0 0 1 51.14 27.42c96.06 60.26 157.83 153.73 157.83 258.77.02 147.7-121.95 272.67-289.94 314.33Z" transform="translate(-413.94 -66.6)"/>

</svg>
